<svg xmlns="http://www.w3.org/2000/svg" data-name="Layer 1" viewBox="0 0 512 512" id="adjustment-thinking"><g data-name="<Group>"><path d="M293.109,7.5c-48.334,0-96.866,18.553-133.153,50.9-36.99,32.977-57.644,76-58.331,121.369L28.934,294.783A7.957,7.957,0,0,0,35.7,307h66.632l.762,75.94a50.2,50.2,0,0,0,51.6,49.687L214,430.805v65.7a8.728,8.728,0,0,0,2.52,5.943A8.588,8.588,0,0,0,222.28,505h.1l236.669-3.29a8.109,8.109,0,0,0,7.9-8.079l.893-158.356c1.367-12.294,3.42-26.624,5.592-41.751,8.435-58.754,18.927-131.839,1-169.238C449.685,56.6,373.507,7.5,293.109,7.5ZM457.6,291.219c-2.215,15.431-4.308,30.006-5.7,42.652a7.973,7.973,0,0,0-.048.833l-.992,150.859L230,488.4V430.313l59.554-1.828a8.057,8.057,0,0,0,7.82-8.242,7.941,7.941,0,0,0-8.207-7.75l-134.852,4.149a34.186,34.186,0,0,1-35.23-33.834l-.839-83.86a8.023,8.023,0,0,0-8-7.948H50.217L116.37,186.362a7.947,7.947,0,0,0,1.237-4.26c0-41.609,18.822-81.3,53-111.763C204,40.567,248.65,23.5,293.109,23.5A192.516,192.516,0,0,1,395.6,53.778c30.46,19.505,53.164,46.615,63.929,76.333a7.854,7.854,0,0,0,.332.785C475.9,163.753,465.75,234.43,457.6,291.219Z" data-name="<Compound Path>"></path><path d="M397.388 177H367.4a36 36 0 0 0-70.195 0H194.612a8 8 0 1 0 0 16H297.205a36 36 0 0 0 70.195 0h29.988a8 8 0 0 0 0-16zM332.3 204.708a20 20 0 1 1 20-20A20.027 20.027 0 0 1 332.3 204.708zM397.388 250H294.8a36 36 0 0 0-70.2 0H194.612a8 8 0 1 0 0 16H224.6a36 36 0 0 0 70.2 0H397.388a8 8 0 0 0 0-16zM259.7 277.62a20 20 0 1 1 20-20A20.028 20.028 0 0 1 259.7 277.62zM397.388 106H294.8a36 36 0 0 0-70.2 0H194.612a8 8 0 1 0 0 16H224.6a36 36 0 0 0 70.2 0H397.388a8 8 0 0 0 0-16zM259.7 134.39a20 20 0 1 1 20-20A20.028 20.028 0 0 1 259.7 134.39z" data-name="<Compound Path>"></path></g></svg>