<svg xmlns="http://www.w3.org/2000/svg" viewBox="0 0 64 64" id="Certificate"><g data-name="Certificate" fill="#000000" class="color000000 svgShape"><path fill="#7a5554" d="M35.84 50.293H3.27a1.5 1.5 0 0 1-1.5-1.5V6.633a1.5 1.5 0 0 1 1.5-1.5h57.461a1.5 1.5 0 0 1 0 3H4.77v39.16h31.07a1.5 1.5 0 0 1 0 3zm24.89 0h-7.95a1.5 1.5 0 0 1 0-3h6.45V12.758a1.5 1.5 0 1 1 3 0v36.035a1.5 1.5 0 0 1-1.5 1.5z" class="color546e7a svgShape"></path><path fill="#7a5554" d="M40.898 17.444H23.102a1.5 1.5 0 0 1 0-3h17.796a1.5 1.5 0 0 1 0 3Z" class="color546e7a svgShape"></path><path fill="#ebbab9" d="M41.838 58.867a1.5 1.5 0 0 1-1.5-1.503l.025-13.591a1.5 1.5 0 0 1 1.5-1.498h.003a1.5 1.5 0 0 1 1.497 1.503l-.02 11.04 3.238-1.794a1.5 1.5 0 1 1 1.453 2.624l-5.47 3.031a1.495 1.495 0 0 1-.726.188zm10.94 0a1.5 1.5 0 0 1-1.5-1.5V43.775a1.5 1.5 0 1 1 3 0v13.592a1.5 1.5 0 0 1-1.5 1.5z" class="colorffcf4a svgShape"></path><path fill="#7a5554" d="M52.398 24.07H11.602a1.5 1.5 0 1 1 0-3h40.796a1.5 1.5 0 0 1 0 3zm-17 6.627H11.602a1.5 1.5 0 0 1 0-3h23.796a1.5 1.5 0 0 1 0 3zm-2 6.626H11.602a1.5 1.5 0 0 1 0-3h21.796a1.5 1.5 0 0 1 0 3z" class="color546e7a svgShape"></path><path fill="#ebbab9" d="M47.308 47.448a1.5 1.5 0 0 1 0-3 6.41 6.41 0 1 0-6.41-6.41 6.35 6.35 0 0 0 1.997 4.65 1.5 1.5 0 1 1-2.064 2.175 9.32 9.32 0 0 1-2.933-6.825 9.41 9.41 0 1 1 9.41 9.41Z" class="colorffcf4a svgShape"></path></g></svg>