<svg xmlns="http://www.w3.org/2000/svg" viewBox="0 0 64 64" id="growth-up-book-learning"><path fill="#231f20" d="M60.88,15H58V13a1,1,0,0,0-1-1H36a5.018,5.018,0,0,0-3.542,1.468,5.1,5.1,0,0,0-.458.563A4.982,4.982,0,0,0,28,12H7a1,1,0,0,0-1,1v2H3.12A1.122,1.122,0,0,0,2,16.12V52.88A1.122,1.122,0,0,0,3.12,54H60.88A1.122,1.122,0,0,0,62,52.88V16.12A1.122,1.122,0,0,0,60.88,15ZM8,14H28a3,3,0,0,1,3,3V31h2V17a2.994,2.994,0,0,1,3-3H56V48H36a4.977,4.977,0,0,0-3,1.026V42h5a5.006,5.006,0,0,0,5-5V35a1,1,0,0,0-1-1H36a4.964,4.964,0,0,0-3.321,1.29A4.993,4.993,0,0,0,28,32H22a1,1,0,0,0-1,1v2a5.006,5.006,0,0,0,5,5h5v9.026A4.948,4.948,0,0,0,28,48H8ZM36,36h5v1a3,3,0,0,1-3,3H33V39A3,3,0,0,1,36,36Zm-5,2H26a3,3,0,0,1-3-3V34h5a3,3,0,0,1,3,3ZM4,52V17H6V49a1,1,0,0,0,1,1H28a3.006,3.006,0,0,1,2.829,2Zm56,0H33.171A2.99,2.99,0,0,1,36,50H57a1,1,0,0,0,1-1V17h2Z"></path><path fill="#231f20" d="M11,24H27a1,1,0,0,0,1-1V19a1,1,0,0,0-1-1H11a1,1,0,0,0-1,1v4A1,1,0,0,0,11,24Zm1-4H26v2H12Z"></path><rect width="18" height="2" x="10" y="26" fill="#231f20"></rect><rect width="2" height="2" x="36" y="18" fill="#231f20"></rect><rect width="14" height="2" x="40" y="18" fill="#231f20"></rect><rect width="18" height="2" x="36" y="22" fill="#231f20"></rect><rect width="18" height="2" x="36" y="26" fill="#231f20"></rect></svg>