<svg id="SvgjsSvg1022" width="288" height="288" xmlns="http://www.w3.org/2000/svg" version="1.1" xmlns:xlink="http://www.w3.org/1999/xlink" xmlns:svgjs="http://svgjs.com/svgjs"><defs id="SvgjsDefs1023"></defs><g id="SvgjsG1024"><svg xmlns="http://www.w3.org/2000/svg" viewBox="0 0 47.5 47.5" width="288" height="288"><defs><clipPath id="a"><path d="M0 38h38V0H0v38Z" fill="#000000" class="color000 svgShape"></path></clipPath></defs><g clip-path="url(#a)" transform="matrix(1.25 0 0 -1.25 0 47.5)" fill="#000000" class="color000 svgShape"><path fill="#000000" d="M23 4c0-2.209-8-2.209-8 0v10a4 4 0 0 0 8 0V4Z" class="colorc1694f svgShape"></path><path fill="#99aab5" d="M27 34H11V14h24v12a8 8 0 0 1-8 8" class="color99aab5 svgShape"></path><path fill="#292f33" d="M11 34a8 8 0 0 1-8-8V14h16v12a8 8 0 0 1-8 8" class="color292f33 svgShape"></path><path fill="#000000" d="M35 24H23a2 2 0 0 1 0-4h8v-2a2 2 0 0 1 2-2h2a2 2 0 0 1 2 2v4a2 2 0 0 1-2 2" class="colordd2e44 svgShape"></path></g></svg></g></svg>