<svg id="SvgjsSvg1001" width="288" height="288" xmlns="http://www.w3.org/2000/svg" version="1.1" xmlns:xlink="http://www.w3.org/1999/xlink" xmlns:svgjs="http://svgjs.com/svgjs"><defs id="SvgjsDefs1002"></defs><g id="SvgjsG1008"><svg xmlns="http://www.w3.org/2000/svg" viewBox="0 0 47.5 47.5" width="288" height="288"><defs><clipPath id="a"><path d="M0 38h38V0H0v38Z" fill="#000000" class="color000 svgShape"></path></clipPath></defs><g clip-path="url(#a)" transform="matrix(1.25 0 0 -1.25 0 47.5)" fill="#000000" class="color000 svgShape"><path fill="#000000" d="M23 4c0-2.209-8-2.209-8 0v10a4 4 0 0 0 8 0V4Z" class="colorc1694f svgShape"></path><path fill="#292f33" d="M11 34a8 8 0 0 1-8-8V14h16v12a8 8 0 0 1-8 8" class="color292f33 svgShape"></path><path fill="#ccd6dd" d="M21 18.24c0-1.236-1.065-2.239-2.293-2.239H3.293C2.064 16.001 1 17.004 1 18.24v10.521c0 1.237 1.064 2.24 2.293 2.24h15.414c1.228 0 2.293-1.003 2.293-2.24V18.24Z" class="colorccd6dd svgShape"></path><path fill="#99aab5" d="m7.637 24.204-6.538-6.572c.113-.376.316-.716.596-.984l6.729 6.764a.565.565 0 0 1 0 .792.553.553 0 0 1-.787 0M14.364 24.204a.553.553 0 0 1-.787 0 .563.563 0 0 1 0-.792l6.728-6.764c.28.268.483.608.596.984l-6.537 6.572Z" class="color99aab5 svgShape"></path><path fill="#99aab5" d="M18.707 31H3.293C2.064 31 1 29.997 1 28.761v-1.419l8.073-8.114a2.693 2.693 0 0 1 3.822 0L21 27.354v1.407C21 29.997 19.935 31 18.707 31" class="color99aab5 svgShape"></path><path fill="#e1e8ed" d="M18.707 31H3.293c-1.166 0-2.172-.906-2.273-2.055l8.407-8.396c.869-.874 2.277-.84 3.145.035l8.41 8.346c-.093 1.156-1.105 2.07-2.275 2.07" class="colore1e8ed svgShape"></path><path fill="#99aab5" d="M27 34H11a8 8 0 0 0 8-8V14h16v12a8 8 0 0 1-8 8" class="color99aab5 svgShape"></path><path fill="#000000" d="M27 36h-4a2 2 0 0 1-2-2V22a2 2 0 0 1 4 0v8h2a2 2 0 0 1 2 2v2a2 2 0 0 1-2 2" class="colordd2e44 svgShape"></path></g></svg></g></svg>