<svg xmlns="http://www.w3.org/2000/svg" viewBox="0 0 24 24" id="open-email"><path d="M21.78 7.53v-.01A5.074 5.074 0 0 0 19 4.41V3a1.003 1.003 0 0 0-1-1H6a1.003 1.003 0 0 0-1 1v1.41a5.074 5.074 0 0 0-2.78 3.11v.01A5.128 5.128 0 0 0 2 9v8a5.002 5.002 0 0 0 5 5h10a5.002 5.002 0 0 0 5-5V9a5.128 5.128 0 0 0-.22-1.47Zm-1.82.99-.96.52V6.77a2.99 2.99 0 0 1 .96 1.75ZM17 4v6.13l-5 2.73-5-2.73V4ZM5 6.77v2.27l-.96-.52A2.99 2.99 0 0 1 5 6.77ZM20 17a3.009 3.009 0 0 1-3 3H7a3.009 3.009 0 0 1-3-3v-6.22c1.813.979 3.127 1.7 7.52 4.1a1.018 1.018 0 0 0 .96 0c6.783-3.707 6.217-3.396 7.52-4.1Z"></path><path d="M9 7h6a1 1 0 0 0 0-2H9a1 1 0 0 0 0 2zm0 3h4a1 1 0 0 0 0-2H9a1 1 0 0 0 0 2z"></path></svg>